<svg width="197" height="22" viewBox="0 0 197 22" fill="none" xmlns="http://www.w3.org/2000/svg">
<path d="M11.56 6.1C11.2 5.40667 10.7 4.88667 10.06 4.54C9.42 4.18 8.68 4 7.84 4C6.92 4 6.1 4.20667 5.38 4.62C4.66 5.03333 4.09333 5.62 3.68 6.38C3.28 7.14 3.08 8.02 3.08 9.02C3.08 10.02 3.28 10.9067 3.68 11.68C4.09333 12.44 4.66 13.0267 5.38 13.44C6.1 13.8533 6.92 14.06 7.84 14.06C9.08 14.06 10.0867 13.7133 10.86 13.02C11.6333 12.3267 12.1067 11.3867 12.28 10.2H7.06V8.38H14.72V10.16C14.5733 11.24 14.1867 12.2333 13.56 13.14C12.9467 14.0467 12.14 14.7733 11.14 15.32C10.1533 15.8533 9.05333 16.12 7.84 16.12C6.53333 16.12 5.34 15.82 4.26 15.22C3.18 14.6067 2.32 13.76 1.68 12.68C1.05333 11.6 0.74 10.38 0.74 9.02C0.74 7.66 1.05333 6.44 1.68 5.36C2.32 4.28 3.18 3.44 4.26 2.84C5.35333 2.22667 6.54667 1.92 7.84 1.92C9.32 1.92 10.6333 2.28667 11.78 3.02C12.94 3.74 13.78 4.76667 14.3 6.1H11.56ZM21.7488 16.18C20.7088 16.18 19.7688 15.9467 18.9288 15.48C18.0888 15 17.4288 14.3333 16.9488 13.48C16.4688 12.6133 16.2288 11.6133 16.2288 10.48C16.2288 9.36 16.4754 8.36667 16.9688 7.5C17.4621 6.63333 18.1354 5.96667 18.9888 5.5C19.8421 5.03333 20.7954 4.8 21.8488 4.8C22.9021 4.8 23.8554 5.03333 24.7088 5.5C25.5621 5.96667 26.2354 6.63333 26.7288 7.5C27.2221 8.36667 27.4688 9.36 27.4688 10.48C27.4688 11.6 27.2154 12.5933 26.7088 13.46C26.2021 14.3267 25.5088 15 24.6288 15.48C23.7621 15.9467 22.8021 16.18 21.7488 16.18ZM21.7488 14.2C22.3354 14.2 22.8821 14.06 23.3888 13.78C23.9088 13.5 24.3288 13.08 24.6488 12.52C24.9688 11.96 25.1288 11.28 25.1288 10.48C25.1288 9.68 24.9754 9.00667 24.6688 8.46C24.3621 7.9 23.9554 7.48 23.4488 7.2C22.9421 6.92 22.3954 6.78 21.8088 6.78C21.2221 6.78 20.6754 6.92 20.1688 7.2C19.6754 7.48 19.2821 7.9 18.9888 8.46C18.6954 9.00667 18.5488 9.68 18.5488 10.48C18.5488 11.6667 18.8488 12.5867 19.4488 13.24C20.0621 13.88 20.8288 14.2 21.7488 14.2ZM32.0027 1.2V16H29.7227V1.2H32.0027ZM34.2361 10.44C34.2361 9.33333 34.4628 8.35333 34.9161 7.5C35.3828 6.64667 36.0094 5.98667 36.7961 5.52C37.5961 5.04 38.4828 4.8 39.4561 4.8C40.1761 4.8 40.8828 4.96 41.5761 5.28C42.2828 5.58667 42.8428 6 43.2561 6.52V1.2H45.5561V16H43.2561V14.34C42.8828 14.8733 42.3628 15.3133 41.6961 15.66C41.0428 16.0067 40.2894 16.18 39.4361 16.18C38.4761 16.18 37.5961 15.94 36.7961 15.46C36.0094 14.9667 35.3828 14.2867 34.9161 13.42C34.4628 12.54 34.2361 11.5467 34.2361 10.44ZM43.2561 10.48C43.2561 9.72 43.0961 9.06 42.7761 8.5C42.4694 7.94 42.0628 7.51333 41.5561 7.22C41.0494 6.92667 40.5028 6.78 39.9161 6.78C39.3294 6.78 38.7828 6.92667 38.2761 7.22C37.7694 7.5 37.3561 7.92 37.0361 8.48C36.7294 9.02667 36.5761 9.68 36.5761 10.44C36.5761 11.2 36.7294 11.8667 37.0361 12.44C37.3561 13.0133 37.7694 13.4533 38.2761 13.76C38.7961 14.0533 39.3428 14.2 39.9161 14.2C40.5028 14.2 41.0494 14.0533 41.5561 13.76C42.0628 13.4667 42.4694 13.04 42.7761 12.48C43.0961 11.9067 43.2561 11.24 43.2561 10.48ZM58.6508 10.22C58.6508 10.6333 58.6241 11.0067 58.5708 11.34H50.1508C50.2174 12.22 50.5441 12.9267 51.1308 13.46C51.7174 13.9933 52.4374 14.26 53.2908 14.26C54.5174 14.26 55.3841 13.7467 55.8908 12.72H58.3508C58.0174 13.7333 57.4108 14.5667 56.5308 15.22C55.6641 15.86 54.5841 16.18 53.2908 16.18C52.2374 16.18 51.2908 15.9467 50.4508 15.48C49.6241 15 48.9708 14.3333 48.4908 13.48C48.0241 12.6133 47.7908 11.6133 47.7908 10.48C47.7908 9.34667 48.0174 8.35333 48.4708 7.5C48.9374 6.63333 49.5841 5.96667 50.4108 5.5C51.2508 5.03333 52.2108 4.8 53.2908 4.8C54.3308 4.8 55.2574 5.02667 56.0708 5.48C56.8841 5.93333 57.5174 6.57333 57.9708 7.4C58.4241 8.21333 58.6508 9.15333 58.6508 10.22ZM56.2708 9.5C56.2574 8.66 55.9574 7.98667 55.3708 7.48C54.7841 6.97333 54.0574 6.72 53.1908 6.72C52.4041 6.72 51.7308 6.97333 51.1708 7.48C50.6108 7.97333 50.2774 8.64667 50.1708 9.5H56.2708ZM66.4545 4.8C67.3212 4.8 68.0945 4.98 68.7745 5.34C69.4679 5.7 70.0079 6.23333 70.3945 6.94C70.7812 7.64667 70.9745 8.5 70.9745 9.5V16H68.7145V9.84C68.7145 8.85333 68.4679 8.1 67.9745 7.58C67.4812 7.04667 66.8079 6.78 65.9545 6.78C65.1012 6.78 64.4212 7.04667 63.9145 7.58C63.4212 8.1 63.1745 8.85333 63.1745 9.84V16H60.8945V4.98H63.1745V6.24C63.5479 5.78667 64.0212 5.43333 64.5945 5.18C65.1812 4.92667 65.8012 4.8 66.4545 4.8ZM89.1381 6.1C88.7781 5.40667 88.2781 4.88667 87.6381 4.54C86.9981 4.18 86.2581 4 85.4181 4C84.4981 4 83.6781 4.20667 82.9581 4.62C82.2381 5.03333 81.6715 5.62 81.2581 6.38C80.8581 7.14 80.6581 8.02 80.6581 9.02C80.6581 10.02 80.8581 10.9067 81.2581 11.68C81.6715 12.44 82.2381 13.0267 82.9581 13.44C83.6781 13.8533 84.4981 14.06 85.4181 14.06C86.6581 14.06 87.6648 13.7133 88.4381 13.02C89.2115 12.3267 89.6848 11.3867 89.8581 10.2H84.6381V8.38H92.2981V10.16C92.1515 11.24 91.7648 12.2333 91.1381 13.14C90.5248 14.0467 89.7181 14.7733 88.7181 15.32C87.7315 15.8533 86.6315 16.12 85.4181 16.12C84.1115 16.12 82.9181 15.82 81.8381 15.22C80.7581 14.6067 79.8981 13.76 79.2581 12.68C78.6315 11.6 78.3181 10.38 78.3181 9.02C78.3181 7.66 78.6315 6.44 79.2581 5.36C79.8981 4.28 80.7581 3.44 81.8381 2.84C82.9315 2.22667 84.1248 1.92 85.4181 1.92C86.8981 1.92 88.2115 2.28667 89.3581 3.02C90.5181 3.74 91.3581 4.76667 91.8781 6.1H89.1381ZM93.7869 10.44C93.7869 9.33333 94.0135 8.35333 94.4669 7.5C94.9335 6.64667 95.5602 5.98667 96.3469 5.52C97.1469 5.04 98.0269 4.8 98.9869 4.8C99.8535 4.8 100.607 4.97333 101.247 5.32C101.9 5.65333 102.42 6.07333 102.807 6.58V4.98H105.107V16H102.807V14.36C102.42 14.88 101.894 15.3133 101.227 15.66C100.56 16.0067 99.8002 16.18 98.9469 16.18C98.0002 16.18 97.1335 15.94 96.3469 15.46C95.5602 14.9667 94.9335 14.2867 94.4669 13.42C94.0135 12.54 93.7869 11.5467 93.7869 10.44ZM102.807 10.48C102.807 9.72 102.647 9.06 102.327 8.5C102.02 7.94 101.614 7.51333 101.107 7.22C100.6 6.92667 100.054 6.78 99.4669 6.78C98.8802 6.78 98.3335 6.92667 97.8269 7.22C97.3202 7.5 96.9069 7.92 96.5869 8.48C96.2802 9.02667 96.1269 9.68 96.1269 10.44C96.1269 11.2 96.2802 11.8667 96.5869 12.44C96.9069 13.0133 97.3202 13.4533 97.8269 13.76C98.3469 14.0533 98.8935 14.2 99.4669 14.2C100.054 14.2 100.6 14.0533 101.107 13.76C101.614 13.4667 102.02 13.04 102.327 12.48C102.647 11.9067 102.807 11.24 102.807 10.48ZM110.762 6.84V12.94C110.762 13.3533 110.855 13.6533 111.042 13.84C111.242 14.0133 111.575 14.1 112.042 14.1H113.442V16H111.642C110.615 16 109.828 15.76 109.282 15.28C108.735 14.8 108.462 14.02 108.462 12.94V6.84H107.162V4.98H108.462V2.24H110.762V4.98H113.442V6.84H110.762ZM125.643 10.22C125.643 10.6333 125.616 11.0067 125.563 11.34H117.143C117.21 12.22 117.536 12.9267 118.123 13.46C118.71 13.9933 119.43 14.26 120.283 14.26C121.51 14.26 122.376 13.7467 122.883 12.72H125.343C125.01 13.7333 124.403 14.5667 123.523 15.22C122.656 15.86 121.576 16.18 120.283 16.18C119.23 16.18 118.283 15.9467 117.443 15.48C116.616 15 115.963 14.3333 115.483 13.48C115.016 12.6133 114.783 11.6133 114.783 10.48C114.783 9.34667 115.01 8.35333 115.463 7.5C115.93 6.63333 116.576 5.96667 117.403 5.5C118.243 5.03333 119.203 4.8 120.283 4.8C121.323 4.8 122.25 5.02667 123.063 5.48C123.876 5.93333 124.51 6.57333 124.963 7.4C125.416 8.21333 125.643 9.15333 125.643 10.22ZM123.263 9.5C123.25 8.66 122.95 7.98667 122.363 7.48C121.776 6.97333 121.05 6.72 120.183 6.72C119.396 6.72 118.723 6.97333 118.163 7.48C117.603 7.97333 117.27 8.64667 117.163 9.5H123.263ZM135.362 6.62C135.749 6.08667 136.275 5.65333 136.942 5.32C137.622 4.97333 138.375 4.8 139.202 4.8C140.175 4.8 141.055 5.03333 141.842 5.5C142.629 5.96667 143.249 6.63333 143.702 7.5C144.155 8.35333 144.382 9.33333 144.382 10.44C144.382 11.5467 144.155 12.54 143.702 13.42C143.249 14.2867 142.622 14.9667 141.822 15.46C141.035 15.94 140.162 16.18 139.202 16.18C138.349 16.18 137.589 16.0133 136.922 15.68C136.269 15.3467 135.749 14.92 135.362 14.4V16H133.082V1.2H135.362V6.62ZM142.062 10.44C142.062 9.68 141.902 9.02667 141.582 8.48C141.275 7.92 140.862 7.5 140.342 7.22C139.835 6.92667 139.289 6.78 138.702 6.78C138.129 6.78 137.582 6.92667 137.062 7.22C136.555 7.51333 136.142 7.94 135.822 8.5C135.515 9.06 135.362 9.72 135.362 10.48C135.362 11.24 135.515 11.9067 135.822 12.48C136.142 13.04 136.555 13.4667 137.062 13.76C137.582 14.0533 138.129 14.2 138.702 14.2C139.289 14.2 139.835 14.0533 140.342 13.76C140.862 13.4533 141.275 13.0133 141.582 12.44C141.902 11.8667 142.062 11.2 142.062 10.44ZM148.917 6.58C149.25 6.02 149.69 5.58667 150.237 5.28C150.797 4.96 151.457 4.8 152.217 4.8V7.16H151.637C150.743 7.16 150.063 7.38667 149.597 7.84C149.143 8.29333 148.917 9.08 148.917 10.2V16H146.637V4.98H148.917V6.58ZM155.473 3.52C155.059 3.52 154.713 3.38 154.433 3.1C154.153 2.82 154.013 2.47333 154.013 2.06C154.013 1.64667 154.153 1.3 154.433 1.02C154.713 0.739999 155.059 0.599999 155.473 0.599999C155.873 0.599999 156.213 0.739999 156.493 1.02C156.773 1.3 156.913 1.64667 156.913 2.06C156.913 2.47333 156.773 2.82 156.493 3.1C156.213 3.38 155.873 3.52 155.473 3.52ZM156.593 4.98V16H154.313V4.98H156.593ZM158.826 10.44C158.826 9.33333 159.053 8.35333 159.506 7.5C159.973 6.64667 160.599 5.98667 161.386 5.52C162.186 5.04 163.073 4.8 164.046 4.8C164.766 4.8 165.473 4.96 166.166 5.28C166.873 5.58667 167.433 6 167.846 6.52V1.2H170.146V16H167.846V14.34C167.473 14.8733 166.953 15.3133 166.286 15.66C165.633 16.0067 164.879 16.18 164.026 16.18C163.066 16.18 162.186 15.94 161.386 15.46C160.599 14.9667 159.973 14.2867 159.506 13.42C159.053 12.54 158.826 11.5467 158.826 10.44ZM167.846 10.48C167.846 9.72 167.686 9.06 167.366 8.5C167.059 7.94 166.653 7.51333 166.146 7.22C165.639 6.92667 165.093 6.78 164.506 6.78C163.919 6.78 163.373 6.92667 162.866 7.22C162.359 7.5 161.946 7.92 161.626 8.48C161.319 9.02667 161.166 9.68 161.166 10.44C161.166 11.2 161.319 11.8667 161.626 12.44C161.946 13.0133 162.359 13.4533 162.866 13.76C163.386 14.0533 163.933 14.2 164.506 14.2C165.093 14.2 165.639 14.0533 166.146 13.76C166.653 13.4667 167.059 13.04 167.366 12.48C167.686 11.9067 167.846 11.24 167.846 10.48ZM177.581 4.8C178.434 4.8 179.187 4.97333 179.841 5.32C180.507 5.65333 181.027 6.07333 181.401 6.58V4.98H183.701V16.18C183.701 17.1933 183.487 18.0933 183.061 18.88C182.634 19.68 182.014 20.3067 181.201 20.76C180.401 21.2133 179.441 21.44 178.321 21.44C176.827 21.44 175.587 21.0867 174.601 20.38C173.614 19.6867 173.054 18.74 172.921 17.54H175.181C175.354 18.1133 175.721 18.5733 176.281 18.92C176.854 19.28 177.534 19.46 178.321 19.46C179.241 19.46 179.981 19.18 180.541 18.62C181.114 18.06 181.401 17.2467 181.401 16.18V14.34C181.014 14.86 180.487 15.3 179.821 15.66C179.167 16.0067 178.421 16.18 177.581 16.18C176.621 16.18 175.741 15.94 174.941 15.46C174.154 14.9667 173.527 14.2867 173.061 13.42C172.607 12.54 172.381 11.5467 172.381 10.44C172.381 9.33333 172.607 8.35333 173.061 7.5C173.527 6.64667 174.154 5.98667 174.941 5.52C175.741 5.04 176.621 4.8 177.581 4.8ZM181.401 10.48C181.401 9.72 181.241 9.06 180.921 8.5C180.614 7.94 180.207 7.51333 179.701 7.22C179.194 6.92667 178.647 6.78 178.061 6.78C177.474 6.78 176.927 6.92667 176.421 7.22C175.914 7.5 175.501 7.92 175.181 8.48C174.874 9.02667 174.721 9.68 174.721 10.44C174.721 11.2 174.874 11.8667 175.181 12.44C175.501 13.0133 175.914 13.4533 176.421 13.76C176.941 14.0533 177.487 14.2 178.061 14.2C178.647 14.2 179.194 14.0533 179.701 13.76C180.207 13.4667 180.614 13.04 180.921 12.48C181.241 11.9067 181.401 11.24 181.401 10.48ZM196.795 10.22C196.795 10.6333 196.769 11.0067 196.715 11.34H188.295C188.362 12.22 188.689 12.9267 189.275 13.46C189.862 13.9933 190.582 14.26 191.435 14.26C192.662 14.26 193.529 13.7467 194.035 12.72H196.495C196.162 13.7333 195.555 14.5667 194.675 15.22C193.809 15.86 192.729 16.18 191.435 16.18C190.382 16.18 189.435 15.9467 188.595 15.48C187.769 15 187.115 14.3333 186.635 13.48C186.169 12.6133 185.935 11.6133 185.935 10.48C185.935 9.34667 186.162 8.35333 186.615 7.5C187.082 6.63333 187.729 5.96667 188.555 5.5C189.395 5.03333 190.355 4.8 191.435 4.8C192.475 4.8 193.402 5.02667 194.215 5.48C195.029 5.93333 195.662 6.57333 196.115 7.4C196.569 8.21333 196.795 9.15333 196.795 10.22ZM194.415 9.5C194.402 8.66 194.102 7.98667 193.515 7.48C192.929 6.97333 192.202 6.72 191.335 6.72C190.549 6.72 189.875 6.97333 189.315 7.48C188.755 7.97333 188.422 8.64667 188.315 9.5H194.415Z" fill="white"/>
</svg>
